<?xml version="1.0" encoding="UTF-8"?>
<svg id="Layer_1" xmlns="http://www.w3.org/2000/svg" version="1.1" viewBox="0 0 657.91 768.27">
  <!-- Generator: Adobe Illustrator 30.1.0, SVG Export Plug-In . SVG Version: 2.1.1 Build 136)  -->
  <defs>
    <style>
      .st0 {
        fill: #f08080;
      }

      .st1 {
        fill: #2a2529;
      }

      .st1, .st2 {
        stroke-width: 15px;
      }

      .st1, .st2, .st3 {
        stroke: #292428;
        stroke-linecap: square;
        stroke-miterlimit: 10;
      }

      .st2, .st3 {
        fill: none;
      }

      .st3 {
        stroke-width: 10px;
      }
    </style>
  </defs>
  <path class="st0" d="M625.64,383.57c-21.26,61.6-102.06,49.71-140.83,138.76-28.37,65.17-.72,107.43-36.79,147.28-37.3,41.21-103.84,36.87-142.75,34.33-113.51-7.41-260.26-76.52-272.72-172.69-7.52-58.01,40.02-78.07,31.83-158.72-6.59-64.9-39.36-71.49-36.78-121.04,4.81-92.41,123.1-151.93,137.95-159.17,22.65-11.05,74.68-32.65,139.73-29.12,184.69,10.02,356.32,216.21,320.37,320.37h0Z"/>
  <path class="st2" d="M275.41,522.65c53.11,7.71,82.35,6.02,82.35,6.02,0,0,75.08-.45,116.81-66.85,41.73-66.39,17.07-242.79,17.07-242.79-30.35-5.69-34.14,10.12-34.14,10.12-17.07,30.98-86.39-10.12-86.39-10.12-59.84,45.52-65.35,0-65.35,0l-45.52,18.97s-17.07,163.13-66.39,49.32c0,0-52.68-24.02-51.21,36.04,0,0,1.11,20.16,13.91,26.56,5.4,2.7,12.34,4.56,18.54,5.81,8.48,1.7,15.61,2.26,15.61,2.26"/>
  <path class="st2" d="M357.76,532.47v54.87c-104.96,128.98-188.42-3.16-188.42-3.16l5.68-226.47"/>
  <path class="st2" d="M491.64,219.03c-2.13-16.01,33.67-15.48,33.67-15.48,18.33-20.86-13.91-30.35-13.91-30.35,0,0,17.7-15.8,3.16-23.39-14.54-7.59-53.11-27.19-75.87-19.6"/>
  <path class="st2" d="M170.74,410.48c-35.41,13.28-56.07-36.02-56.07-36.02-34.14,1.26-20.23-53.74-20.23-53.74-32.88-34.78,2.53-66.39,2.53-66.39,2.53-41.73,19.94-64.5,19.94-64.5-76.17,12.65,5.36-37.94,5.36-37.94l-4.43-24.03c-6.83-37.1,48.68,0,48.68,0,0,0,199.23-112.16,280.13-4.86"/>
  <line class="st2" x1="169.34" y1="584.18" x2="68.1" y2="601.87"/>
  <line class="st2" x1="357.76" y1="584.18" x2="468.46" y2="618.54"/>
  <path class="st2" d="M276.83,263.3s22.76-21.5,56.91-18.33"/>
  <path class="st2" d="M426.68,253.98s26.56-11.22,51.85,0"/>
  <ellipse class="st1" cx="330.9" cy="295.86" rx="11.05" ry="16.12"/>
  <ellipse class="st1" cx="452.6" cy="295.86" rx="11.05" ry="16.12"/>
  <path class="st2" d="M397.96,310.34s101.79,104.96-16.44,89.15"/>
  <path class="st2" d="M291.36,419.49c5.25,7.19,18.6,23.44,42.24,32.97,26.8,10.81,50.48,6.4,58.93,4.4"/>
  <path class="st3" d="M165.55,305.03s15.17.63,24.66,13.91"/>
  <path class="st2" d="M151.89,595.7s10.9,37.74,51.98,53.12"/>
  <line class="st2" x1="598.77" y1="179.25" x2="541.3" y2="232.75"/>
  <line class="st2" x1="611.55" y1="235.95" x2="553.42" y2="253.36"/>
  <line class="st2" x1="556.46" y1="278.53" x2="633.09" y2="278.53"/>
</svg>